<svg width="10" height="12" viewBox="0 0 10 12" fill="none" xmlns="http://www.w3.org/2000/svg">
<path d="M0.928 10.644C1.28 10.54 1.596 10.352 1.876 10.08C2.156 9.816 2.36 9.488 2.488 9.096C2.592 8.792 2.66 8.44 2.692 8.04C2.724 7.632 2.74 7.008 2.74 6.168V0.84L1.588 0.684V0.0839996H5.116V0.684L4.024 0.84V5.7V6.264C4.024 6.896 4.016 7.404 4 7.788C3.984 8.172 3.948 8.5 3.892 8.772C3.748 9.412 3.432 9.94 2.944 10.356C2.456 10.772 1.892 11.036 1.252 11.148L0.928 10.644ZM5.49831 10.644C5.85031 10.54 6.16631 10.352 6.44631 10.08C6.72631 9.816 6.93031 9.488 7.05831 9.096C7.16231 8.792 7.23031 8.44 7.26231 8.04C7.29431 7.632 7.31031 7.008 7.31031 6.168V0.84L6.15831 0.684V0.0839996H9.68631V0.684L8.59431 0.84V5.7V6.264C8.59431 6.896 8.58631 7.404 8.57031 7.788C8.55431 8.172 8.51831 8.5 8.46231 8.772C8.31831 9.412 8.00231 9.94 7.51431 10.356C7.02631 10.772 6.46231 11.036 5.82231 11.148L5.49831 10.644Z" fill="black"/>
</svg>
